<?xml version="1.0" encoding="utf-8"?>
<!-- Generator: Adobe Illustrator 17.0.0, SVG Export Plug-In . SVG Version: 6.00 Build 0)  -->
<!DOCTYPE svg PUBLIC "-//W3C//DTD SVG 1.1//EN" "http://www.w3.org/Graphics/SVG/1.1/DTD/svg11.dtd">
<svg version="1.1" id="Capa_1" xmlns="http://www.w3.org/2000/svg" xmlns:xlink="http://www.w3.org/1999/xlink" x="0px" y="0px"
	 width="54px" height="54px" viewBox="0 0 54 54" enable-background="new 0 0 54 54" xml:space="preserve">
<g>
	<path fill="#EAEAEA" d="M27.193,2.304c0.365,0.163,0.72,0.274,1.025,0.465c7.818,4.89,15.632,9.783,23.44,14.689
		c1.234,0.775,1.232,2.007-0.005,2.779c-7.823,4.882-15.654,9.749-23.479,14.627c-0.683,0.426-1.319,0.414-2-0.011
		c-7.824-4.879-15.656-9.746-23.478-14.628c-1.232-0.769-1.216-1.996,0.029-2.778c7.808-4.904,15.623-9.799,23.44-14.689
		C26.47,2.568,26.828,2.463,27.193,2.304z"/>
	<path fill="#EAEAEA" d="M52.561,36.387c0.004,1.039-0.488,1.449-1.072,1.814c-3.742,2.337-7.479,4.68-11.217,7.023
		c-3.94,2.469-7.89,4.921-11.809,7.421c-0.899,0.573-1.643,0.576-2.548,0.005c-7.641-4.82-15.302-9.608-22.957-14.407
		C1.4,37.266,1.48,36.246,2.904,35.131c1.355-1.061,2.361-0.951,3.789-0.034c6.356,4.083,12.811,8.011,19.211,12.026
		c0.9,0.565,1.646,0.573,2.551,0.006c6.804-4.265,13.634-8.49,20.44-12.751c0.505-0.316,0.861-0.342,1.332,0.014
		c0.504,0.381,1.109,0.632,1.591,1.035C52.175,35.727,52.405,36.179,52.561,36.387z"/>
	<path fill="#EAEAEA" d="M52.573,27.483c-0.033,1.026-0.495,1.424-1.059,1.774c-4.915,3.051-9.824,6.11-14.735,9.168
		c-2.758,1.717-5.533,3.409-8.264,5.167c-0.921,0.593-1.689,0.608-2.621,0.023c-7.655-4.797-15.33-9.561-22.998-14.337
		c-1.468-0.914-1.4-1.977-0.061-3.024c1.378-1.077,2.421-1.021,3.919-0.054c6.301,4.069,12.72,7.953,19.069,11.95
		c0.992,0.625,1.769,0.599,2.751-0.019c6.753-4.245,13.54-8.437,20.303-12.667c0.488-0.305,0.846-0.388,1.328-0.015
		c0.499,0.386,1.109,0.633,1.588,1.039C52.164,26.805,52.411,27.271,52.573,27.483z"/>
</g>
</svg>
